Format                                   : Matroska
Format version                           : Version 2
File size                                : 1.34 GiB
Duration                                 : 1h 31mn
Overall bit rate mode                    : Variable
Overall bit rate                         : 2 098 Kbps
Writing application                      : Lavf52.94.0
Writing library                          : Lavf52.94.0

Video
ID                                       : 1
Format                                   : AVC
Format/Info                              : Advanced Video Codec
Format profile                           : Main@L3.1
Format settings, CABAC                   : Yes
Format settings, ReFrames                : 1 frame
Format settings, GOP                     : M=1, N=15
Codec ID                                 : V_MPEG4/ISO/AVC
Duration                                 : 1h 31mn
Bit rate mode                            : Variable
Bit rate                                 : 1 864 Kbps
Maximum bit rate                         : 5 700 Kbps
Width                                    : 768 pixels
Height                                   : 576 pixels
Display aspect ratio                     : 4:3
Frame rate mode                          : Constant
Frame rate                               : 25.000 fps
Color space                              : YUV
Chroma subsampling                       : 4:2:0
Bit depth                                : 8 bits
Scan type                                : Progressive
Bits/(Pixel*Frame)                       : 0.169
Stream size                              : 1.19 GiB (89%)
Default                                  : Yes
Forced                                   : No

Audio
ID                                       : 2
Format                                   : MPEG Audio
Format version                           : Version 1
Format profile                           : Layer 3
Mode                                     : Joint stereo
Mode extension                           : MS Stereo
Codec ID                                 : A_MPEG/L3
Codec ID/Hint                            : MP3
Duration                                 : 1h 31mn
Bit rate mode                            : Constant
Bit rate                                 : 192 Kbps
Channel(s)                               : 2 channels
Sampling rate                            : 48.0 KHz
Compression mode                         : Lossy
Delay relative to video                  : 48ms
Stream size                              : 126 MiB (9%)
Default                                  : Yes
Forced                                   : No

